<?xml version="1.0" encoding="UTF-8"?>
<!DOCTYPE svg PUBLIC "-//W3C//DTD SVG 1.1//EN" "http://www.w3.org/Graphics/SVG/1.1/DTD/svg11.dtd">
<!-- Creator: CorelDRAW 2021.5 -->
<svg xmlns="http://www.w3.org/2000/svg" xml:space="preserve" width="5.0932mm" height="5.0932mm" version="1.1" shape-rendering="geometricPrecision" text-rendering="geometricPrecision" image-rendering="optimizeQuality" fill-rule="evenodd" clip-rule="evenodd"
viewBox="0 0 26.72 26.72"
 xmlns:xlink="http://www.w3.org/1999/xlink"
 xmlns:xodm="http://www.corel.com/coreldraw/odm/2003">
 <g id="Camada_x0020_1">
  <metadata id="CorelCorpID_0Corel-Layer"/>
  <path fill="#FEFEFE" fill-rule="nonzero" d="M22.72 3.88c-2.5,-2.51 -5.83,-3.88 -9.36,-3.88 -7.3,0 -13.24,5.94 -13.24,13.24 0,2.33 0.61,4.61 1.77,6.62l-1.88 6.86 7.02 -1.84c1.93,1.06 4.11,1.61 6.33,1.61l0.01 0c7.3,0 13.37,-5.94 13.37,-13.24 0,-3.54 -1.5,-6.86 -4,-9.36zm-9.36 20.38c-1.98,0 -3.92,-0.53 -5.61,-1.53l-0.4 -0.24 -4.16 1.09 1.11 -4.06 -0.26 -0.42c-1.1,-1.75 -1.68,-3.78 -1.68,-5.86 0,-6.07 4.94,-11.01 11.01,-11.01 2.94,0 5.7,1.15 7.78,3.23 2.08,2.08 3.35,4.84 3.35,7.78 0,6.07 -5.06,11.01 -11.13,11.01zm6.04 -8.24c-0.33,-0.17 -1.96,-0.97 -2.26,-1.07 -0.3,-0.11 -0.53,-0.17 -0.75,0.17 -0.22,0.33 -0.85,1.07 -1.05,1.3 -0.19,0.22 -0.39,0.25 -0.72,0.08 -1.94,-0.97 -3.22,-1.74 -4.5,-3.94 -0.34,-0.58 0.34,-0.54 0.97,-1.81 0.11,-0.22 0.05,-0.41 -0.03,-0.58 -0.08,-0.17 -0.75,-1.8 -1.02,-2.46 -0.27,-0.64 -0.54,-0.56 -0.75,-0.57 -0.19,-0.01 -0.41,-0.01 -0.63,-0.01 -0.22,0 -0.58,0.08 -0.88,0.41 -0.3,0.33 -1.16,1.13 -1.16,2.76 0,1.63 1.19,3.2 1.35,3.42 0.17,0.22 2.33,3.56 5.65,5 2.1,0.91 2.92,0.98 3.97,0.83 0.64,-0.1 1.96,-0.8 2.23,-1.57 0.27,-0.78 0.27,-1.44 0.19,-1.58 -0.08,-0.15 -0.3,-0.23 -0.63,-0.39z"/>
 </g>
</svg>
