<?xml version="1.0" encoding="UTF-8"?>
<!DOCTYPE svg PUBLIC "-//W3C//DTD SVG 1.1//EN" "http://www.w3.org/Graphics/SVG/1.1/DTD/svg11.dtd">
<!-- Creator: CorelDRAW 2021.5 -->
<svg xmlns="http://www.w3.org/2000/svg" xml:space="preserve" width="5.8202mm" height="5.821mm" version="1.1" shape-rendering="geometricPrecision" text-rendering="geometricPrecision" image-rendering="optimizeQuality" fill-rule="evenodd" clip-rule="evenodd"
viewBox="0 0 33.69 33.7"
 xmlns:xlink="http://www.w3.org/1999/xlink"
 xmlns:xodm="http://www.corel.com/coreldraw/odm/2003">
 <g id="Camada_x0020_1">
  <metadata id="CorelCorpID_0Corel-Layer"/>
  <path fill="#FEFEFE" fill-rule="nonzero" d="M33.64 25.47l-1.53 6.63c-0.21,0.94 -1.04,1.59 -2,1.59 -16.6,-0 -30.11,-13.51 -30.11,-30.11 0,-0.97 0.66,-1.79 1.59,-2l6.63 -1.53c0.97,-0.22 1.95,0.28 2.35,1.19l3.06 7.14c0.36,0.84 0.12,1.82 -0.59,2.4l-3.54 2.85c2.24,4.55 5.94,8.26 10.5,10.5l2.9 -3.54c0.57,-0.71 1.56,-0.95 2.4,-0.59l7.14 3.06c0.86,0.45 1.42,1.45 1.19,2.41z"/>
 </g>
</svg>
