<?xml version="1.0" encoding="UTF-8"?>
<!DOCTYPE svg PUBLIC "-//W3C//DTD SVG 1.1//EN" "http://www.w3.org/Graphics/SVG/1.1/DTD/svg11.dtd">
<!-- Creator: CorelDRAW 2021.5 -->
<svg xmlns="http://www.w3.org/2000/svg" xml:space="preserve" width="7.4083mm" height="8.4516mm" version="1.1" shape-rendering="geometricPrecision" text-rendering="geometricPrecision" image-rendering="optimizeQuality" fill-rule="evenodd" clip-rule="evenodd"
viewBox="0 0 63.17 72.07"
 xmlns:xlink="http://www.w3.org/1999/xlink"
 xmlns:xodm="http://www.corel.com/coreldraw/odm/2003">
 <g id="Camada_x0020_1">
  <metadata id="CorelCorpID_0Corel-Layer"/>
  <path fill="#2B6099" fill-rule="nonzero" d="M15.79 15.76c0,-8.71 7.06,-15.76 15.79,-15.76 8.73,0 15.79,7.06 15.79,15.76l0 6.76 9.02 0c3.74,0 6.77,3.03 6.77,6.76l0 29.28c0,7.46 -6.06,13.51 -13.54,13.51l-36.1 0c-7.48,0 -13.54,-6.05 -13.54,-13.51l0 -29.28c0,-3.73 3.03,-6.76 6.77,-6.76l9.02 0 0 -6.76zm6.77 6.76l18.05 0 0 -6.76c0,-4.98 -4.05,-9.01 -9.02,-9.01 -4.98,0 -9.02,4.03 -9.02,9.01l0 6.76zm-3.38 13.51c1.88,0 3.38,-1.51 3.38,-3.38 0,-1.87 -1.51,-3.38 -3.38,-3.38 -1.88,0 -3.38,1.51 -3.38,3.38 0,1.87 1.51,3.38 3.38,3.38zm24.82 -6.76c-1.88,0 -3.38,1.51 -3.38,3.38 0,1.87 1.51,3.38 3.38,3.38 1.88,0 3.38,-1.51 3.38,-3.38 0,-1.87 -1.51,-3.38 -3.38,-3.38z"/>
 </g>
</svg>
