<?xml version="1.0" encoding="UTF-8"?>
<!DOCTYPE svg PUBLIC "-//W3C//DTD SVG 1.1//EN" "http://www.w3.org/Graphics/SVG/1.1/DTD/svg11.dtd">
<!-- Creator: CorelDRAW 2021.5 -->
<svg xmlns="http://www.w3.org/2000/svg" xml:space="preserve" width="7.4125mm" height="7.4108mm" version="1.1" shape-rendering="geometricPrecision" text-rendering="geometricPrecision" image-rendering="optimizeQuality" fill-rule="evenodd" clip-rule="evenodd"
viewBox="0 0 53.91 53.9"
 xmlns:xlink="http://www.w3.org/1999/xlink"
 xmlns:xodm="http://www.corel.com/coreldraw/odm/2003">
 <g id="Camada_x0020_1">
  <metadata id="CorelCorpID_0Corel-Layer"/>
  <path fill="#FEFEFE" fill-rule="nonzero" d="M26.96 13.13c-7.65,0 -13.82,6.17 -13.82,13.82 0,7.65 6.17,13.82 13.82,13.82 7.65,0 13.82,-6.17 13.82,-13.82 0,-7.65 -6.17,-13.82 -13.82,-13.82zm0 22.8c-4.94,0 -8.98,-4.03 -8.98,-8.98 0,-4.95 4.03,-8.98 8.98,-8.98 4.95,0 8.98,4.03 8.98,8.98 0,4.95 -4.04,8.98 -8.98,8.98zm17.61 -23.37c0,1.79 -1.44,3.22 -3.22,3.22 -1.79,0 -3.22,-1.44 -3.22,-3.22 0,-1.78 1.44,-3.22 3.22,-3.22 1.78,0 3.22,1.44 3.22,3.22zm9.15 3.27c-0.2,-4.32 -1.19,-8.14 -4.35,-11.29 -3.15,-3.15 -6.98,-4.14 -11.29,-4.35 -4.45,-0.25 -17.79,-0.25 -22.24,0 -4.31,0.2 -8.13,1.19 -11.29,4.34 -3.16,3.15 -4.14,6.98 -4.35,11.29 -0.25,4.45 -0.25,17.79 0,22.24 0.2,4.32 1.19,8.14 4.35,11.29 3.16,3.15 6.98,4.14 11.29,4.35 4.45,0.25 17.79,0.25 22.24,0 4.32,-0.2 8.14,-1.19 11.29,-4.35 3.15,-3.15 4.14,-6.98 4.35,-11.29 0.25,-4.45 0.25,-17.77 0,-22.22zm-5.75 27c-0.94,2.36 -2.75,4.17 -5.12,5.12 -3.55,1.41 -11.97,1.08 -15.89,1.08 -3.92,0 -12.35,0.31 -15.89,-1.08 -2.36,-0.94 -4.17,-2.75 -5.12,-5.12 -1.41,-3.55 -1.08,-11.97 -1.08,-15.89 0,-3.92 -0.31,-12.35 1.08,-15.89 0.94,-2.36 2.75,-4.17 5.12,-5.12 3.55,-1.41 11.97,-1.08 15.89,-1.08 3.92,0 12.35,-0.31 15.89,1.08 2.36,0.94 4.17,2.75 5.12,5.12 1.41,3.55 1.08,11.97 1.08,15.89 0,3.92 0.32,12.35 -1.08,15.89z"/>
 </g>
</svg>
