<?xml version="1.0" encoding="UTF-8"?>
<!DOCTYPE svg PUBLIC "-//W3C//DTD SVG 1.1//EN" "http://www.w3.org/Graphics/SVG/1.1/DTD/svg11.dtd">
<!-- Creator: CorelDRAW 2021.5 -->
<svg xmlns="http://www.w3.org/2000/svg" xml:space="preserve" width="6.3451mm" height="5.7502mm" version="1.1" shape-rendering="geometricPrecision" text-rendering="geometricPrecision" image-rendering="optimizeQuality" fill-rule="evenodd" clip-rule="evenodd"
viewBox="0 0 152.38 138.1"
 xmlns:xlink="http://www.w3.org/1999/xlink"
 xmlns:xodm="http://www.corel.com/coreldraw/odm/2003">
 <g id="Camada_x0020_1">
  <metadata id="CorelCorpID_0Corel-Layer"/>
  <g id="_2135564241984">
   <path fill="white" d="M0 67.86c0,5.08 0.85,8.33 4.68,11.99 2.15,2.06 6.1,4.08 10.2,4.08l122.62 0c7.88,0 14.88,-6.99 14.88,-13.69 0,-5.08 -0.85,-8.33 -4.68,-11.99 -2.15,-2.06 -6.1,-4.09 -10.2,-4.09l-122.62 0c-7.88,0 -14.88,6.99 -14.88,13.69z"/>
   <path fill="white" d="M0 122.03l0 0.13 0 2.3c0.04,0.76 0.18,1.35 0.62,2.9 0.62,2.14 1.37,3.4 2.68,5.05 0.97,1.21 0.87,1.12 2.08,2.08 3.71,2.95 6.87,3.61 12.16,3.61l117.26 0c5.25,0 8.41,-0.62 12.17,-3.61 1.63,-1.29 2.45,-2.31 3.52,-4.22 1.12,-2.01 1.72,-4.07 1.87,-6.09l0 -2.17c-0.57,-7.39 -6.9,-13.68 -14.28,-13.68l-123.81 0c-4.31,0 -7.55,2.04 -9.79,4.2 -1.27,1.22 -2.1,2.3 -2.92,3.93 -0.71,1.42 -1.58,3.58 -1.58,5.56z"/>
   <path fill="white" d="M0 13.99l0 0.3c0,3.02 0.07,4.29 1.48,7.15 0.88,1.79 1.29,2.3 2.57,3.68 0.04,0.05 0.1,0.11 0.14,0.16 2.24,2.32 5.71,4.49 10.09,4.49l123.81 0c4.31,0 7.55,-2.04 9.79,-4.2l1.57 -1.71c0.56,-0.7 0.91,-1.35 1.34,-2.23 0.91,-1.82 1.45,-3.79 1.58,-5.78l0 -1.98c-0.14,-2.05 -0.72,-4.06 -1.77,-5.86l-1.54 -2.32c-1.76,-2.2 -4.2,-3.95 -7.07,-4.84 -1.89,-0.59 -4.62,-0.85 -7.19,-0.85l-117.26 0c-6.87,0 -12.29,1.78 -15.68,7.83 -0.76,1.34 -0.69,0.96 -1.18,2.69 -0.36,1.25 -0.69,1.97 -0.69,3.47z"/>
  </g>
 </g>
</svg>
