<?xml version="1.0" encoding="UTF-8"?>
<!DOCTYPE svg PUBLIC "-//W3C//DTD SVG 1.1//EN" "http://www.w3.org/Graphics/SVG/1.1/DTD/svg11.dtd">
<!-- Creator: CorelDRAW 2021.5 -->
<svg xmlns="http://www.w3.org/2000/svg" xml:space="preserve" width="9.0312mm" height="6.35mm" version="1.1" shape-rendering="geometricPrecision" text-rendering="geometricPrecision" image-rendering="optimizeQuality" fill-rule="evenodd" clip-rule="evenodd"
viewBox="0 0 98.85 69.51"
 xmlns:xlink="http://www.w3.org/1999/xlink"
 xmlns:xodm="http://www.corel.com/coreldraw/odm/2003">
 <g id="Camada_x0020_1">
  <metadata id="CorelCorpID_0Corel-Layer"/>
  <path fill="#FEFEFE" fill-rule="nonzero" d="M96.79 10.88c-1.14,-4.28 -4.49,-7.65 -8.74,-8.8 -7.71,-2.08 -38.62,-2.08 -38.62,-2.08 0,0 -30.91,0 -38.62,2.08 -4.25,1.14 -7.6,4.52 -8.74,8.8 -2.07,7.76 -2.07,23.95 -2.07,23.95 0,0 0,16.19 2.07,23.95 1.14,4.28 4.49,7.51 8.74,8.66 7.71,2.08 38.62,2.08 38.62,2.08 0,0 30.91,0 38.62,-2.08 4.25,-1.14 7.6,-4.38 8.74,-8.66 2.07,-7.76 2.07,-23.95 2.07,-23.95 0,0 0,-16.19 -2.07,-23.95zm-57.47 38.65l0 -29.4 25.84 14.7 -25.84 14.7z"/>
 </g>
</svg>
