<?xml version="1.0" encoding="UTF-8"?>
<!DOCTYPE svg PUBLIC "-//W3C//DTD SVG 1.1//EN" "http://www.w3.org/Graphics/SVG/1.1/DTD/svg11.dtd">
<!-- Creator: CorelDRAW 2021.5 -->
<svg xmlns="http://www.w3.org/2000/svg" xml:space="preserve" width="8.4666mm" height="6.8764mm" version="1.1" shape-rendering="geometricPrecision" text-rendering="geometricPrecision" image-rendering="optimizeQuality" fill-rule="evenodd" clip-rule="evenodd"
viewBox="0 0 84.14 68.34"
 xmlns:xlink="http://www.w3.org/1999/xlink"
 xmlns:xodm="http://www.corel.com/coreldraw/odm/2003">
 <g id="Camada_x0020_1">
  <metadata id="CorelCorpID_0Corel-Layer"/>
  <path fill="#FEFEFE" fill-rule="nonzero" d="M75.49 17.03c0.05,0.75 0.05,1.49 0.05,2.24 0,22.8 -17.35,49.06 -49.07,49.06 -9.77,0 -18.85,-2.83 -26.48,-7.74 1.39,0.16 2.72,0.21 4.16,0.21 8.06,0 15.48,-2.72 21.41,-7.37 -7.58,-0.16 -13.94,-5.13 -16.12,-11.96 1.07,0.16 2.14,0.27 3.26,0.27 1.55,0 3.1,-0.21 4.54,-0.59 -7.9,-1.6 -13.83,-8.54 -13.83,-16.92l0 -0.21c2.3,1.28 4.97,2.08 7.79,2.19 -4.65,-3.1 -7.69,-8.38 -7.69,-14.36 0,-3.2 0.85,-6.14 2.35,-8.7 8.49,10.46 21.25,17.3 35.56,18.05 -0.27,-1.28 -0.43,-2.62 -0.43,-3.95 0,-9.5 7.69,-17.24 17.25,-17.24 4.97,0 9.45,2.08 12.6,5.45 3.9,-0.75 7.63,-2.19 10.94,-4.16 -1.28,4 -4,7.37 -7.58,9.5 3.47,-0.37 6.83,-1.33 9.93,-2.67 -2.35,3.42 -5.29,6.46 -8.65,8.92z"/>
 </g>
</svg>
